<?xml version="1.0" standalone="no"?>
<!DOCTYPE svg PUBLIC "-//W3C//DTD SVG 20010904//EN"
 "http://www.w3.org/TR/2001/REC-SVG-20010904/DTD/svg10.dtd">
<svg version="1.0" xmlns="http://www.w3.org/2000/svg" viewBox="0 0 32 32"
 preserveAspectRatio="xMidYMid meet">

<g transform="translate(0.000000,32.000000) scale(0.100000,-0.100000)"
fill="#FFFFFF" stroke="none">
<path d="M95 306 c-101 -44 -125 -178 -46 -257 65 -65 157 -65 222 0 124 124
-15 327 -176 257z m37 -103 l28 -27 30 29 c39 37 52 24 15 -15 l-29 -30 29
-30 c16 -16 25 -33 22 -37 -4 -3 -21 6 -37 22 l-30 29 -30 -29 c-39 -37 -52
-24 -15 15 l29 30 -27 28 c-45 47 -32 60 15 15z"/>
</g>
</svg>
